<svg width="30" height="30" viewBox="0 0 30 30" fill="none" xmlns="http://www.w3.org/2000/svg">
<path d="M23.75 13.125V12.5C23.75 7.78625 23.75 5.42875 22.285 3.965C20.82 2.50125 18.4637 2.5 13.75 2.5C9.03625 2.5 6.67875 2.5 5.215 3.965C3.75125 5.43 3.75 7.78625 3.75 12.5V20C3.75 22.33 3.75 23.495 4.13 24.4125C4.38127 25.0192 4.7496 25.5705 5.21394 26.0348C5.67828 26.4992 6.22955 26.8675 6.83625 27.1187C7.755 27.5 8.92 27.5 11.25 27.5M8.75 8.75H18.75M8.75 13.75H13.75" stroke="#1E1E1E" stroke-width="1.875" stroke-linecap="round" stroke-linejoin="round"/>
<path d="M19.1037 23.7551C19.0287 22.6451 18.8975 21.4576 18.3525 20.1151C17.8863 18.9701 18.0163 16.2764 20.625 16.2764C23.2337 16.2764 23.3325 18.9701 22.8675 20.1139C22.3225 21.4576 22.22 22.6451 22.1475 23.7551M26.25 27.5001H15V25.9426C15 25.3851 15.3325 24.8939 15.8162 24.7414L18.635 23.8464C18.8367 23.7822 19.0425 23.7501 19.2525 23.7501H21.9975C22.2075 23.7501 22.4133 23.7822 22.615 23.8464L25.4338 24.7414C25.9175 24.8939 26.25 25.3851 26.25 25.9426V27.5001Z" stroke="#1E1E1E" stroke-width="1.875" stroke-linecap="round" stroke-linejoin="round"/>
</svg>
