<svg width="30" height="30" viewBox="0 0 30 30" fill="none" xmlns="http://www.w3.org/2000/svg">
<path d="M15.625 23.75V27.5M13.125 27.5H18.125" stroke="#1E1E1E" stroke-width="1.875" stroke-linecap="round" stroke-linejoin="round"/>
<path d="M16.875 20C12.0425 20 8.125 16.0825 8.125 11.25C8.125 6.41751 12.0425 2.5 16.875 2.5C21.7075 2.5 25.625 6.41751 25.625 11.25C25.625 16.0825 21.7075 20 16.875 20Z" stroke="#1E1E1E" stroke-width="1.875" stroke-linecap="round" stroke-linejoin="round"/>
<path d="M10.625 5C11.4425 5.0475 11.865 5.44875 12.5912 6.21625C13.9037 7.60375 15.2163 7.71875 16.0913 7.25625C17.4025 6.5625 16.3 5.44 17.84 4.83125C18.8438 4.43125 18.9837 3.35 18.425 2.5M25 12.5C23.125 12.5 22.7925 14.0587 21.25 13.75C18.125 13.125 17.24 13.8238 17.24 15.3138C17.24 16.8038 17.24 16.8037 16.59 17.9212C16.1675 18.6487 16.0188 19.375 16.8613 20" stroke="#1E1E1E" stroke-width="1.875" stroke-linecap="round" stroke-linejoin="round"/>
<path d="M8.125 2.5C6.93798 3.64876 5.99426 5.02463 5.35001 6.54569C4.70577 8.06674 4.37419 9.70188 4.375 11.3538C4.375 18.2 9.97125 23.75 16.875 23.75C20.1428 23.7579 23.2837 22.4858 25.625 20.2063" stroke="#1E1E1E" stroke-width="1.875" stroke-linecap="round" stroke-linejoin="round"/>
</svg>
