<svg width="30" height="30" viewBox="0 0 30 30" fill="none" xmlns="http://www.w3.org/2000/svg">
<path fill-rule="evenodd" clip-rule="evenodd" d="M11.075 17.1687C11.8 16.4062 12.5125 15.68 13.1762 15.105C13.6825 15.2412 14.2037 15.3175 14.7262 15.33C14.7739 15.3336 14.8219 15.3277 14.8673 15.3126C14.9128 15.2975 14.9548 15.2736 14.9909 15.2422C15.027 15.2109 15.0566 15.1726 15.0779 15.1298C15.0992 15.0869 15.1118 15.0403 15.115 14.9925C15.1183 14.9455 15.1122 14.8983 15.0969 14.8538C15.0817 14.8092 15.0575 14.7682 15.026 14.7332C14.9945 14.6981 14.9562 14.6699 14.9135 14.65C14.8708 14.6301 14.8245 14.6191 14.7775 14.6175C11.9637 14.355 10.65 12.615 10.6125 10.79C11 10.995 11.425 11.1225 11.8625 11.165C12.0675 11.1958 12.2716 11.1958 12.475 11.165C12.6833 11.1367 12.8837 11.0825 13.0762 11.0025C13.56 10.827 13.9904 10.5299 14.3262 10.14C14.3262 10.14 14.3262 10.04 14.4012 9.99C14.5579 10.09 14.7208 10.1775 14.89 10.2525C15.3212 10.4537 15.775 10.605 16.24 10.7025C17.1275 10.8675 18.0362 10.8887 18.93 10.765C19.0373 11.7136 18.7789 12.6675 18.2073 13.4321C17.6356 14.1967 16.7939 14.7145 15.8537 14.88C15.7464 14.8926 15.6483 14.9468 15.5805 15.0309C15.5127 15.1151 15.4806 15.2225 15.4912 15.33C15.5068 15.4384 15.5636 15.5365 15.6497 15.6041C15.7359 15.6716 15.8448 15.7033 15.9537 15.6925C16.5612 15.6308 17.1512 15.4526 17.6912 15.1675C18.1245 15.6325 18.512 16.1325 18.8537 16.6675C19.0537 16.9675 19.2425 17.2675 19.43 17.58C19.6175 17.8925 19.78 18.2062 19.9425 18.5312C20.1375 18.9046 20.3083 19.2879 20.455 19.6812C20.7175 20.1325 21.3562 20.22 21.6187 19.4312C21.5187 18.6062 21.3937 18.7562 21.1437 18.0312C21.0048 17.6385 20.8333 17.258 20.6312 16.8937C20.4315 16.5239 20.1881 16.1793 19.9062 15.8675C19.4712 15.3925 18.9797 14.9727 18.4425 14.6175C19.023 14.0562 19.4686 13.3705 19.7458 12.612C20.0229 11.8536 20.1244 11.0421 20.0425 10.2387C20.0428 9.58171 19.9136 8.93106 19.6623 8.32398C19.4111 7.7169 19.0426 7.1653 18.578 6.70071C18.1134 6.23612 17.5618 5.86765 16.9547 5.61637C16.3476 5.36509 15.697 5.23592 15.04 5.23625C13.617 5.17779 12.2286 5.68381 11.177 6.64414C10.1253 7.60447 9.49562 8.94136 9.42496 10.3637C9.38735 11.2955 9.63378 12.2166 10.1316 13.0051C10.6294 13.7935 11.3551 14.4121 12.2125 14.7787C11.4825 15.2075 10.7912 15.7012 10.15 16.255C9.57934 16.7485 9.0826 17.3214 8.67496 17.9562C8.27219 18.5398 8.06197 19.2348 8.07371 19.9437C8.07371 20.5325 8.79871 20.8575 8.89871 20.3825C8.99871 19.52 9.26121 19.445 9.78621 18.72C10.1879 18.1783 10.6175 17.6612 11.075 17.1687ZM15.04 6.675C15.9425 6.63475 16.8276 6.933 17.5217 7.51129C18.2159 8.08959 18.6691 8.90625 18.7925 9.80124C18.0283 9.77101 17.2715 9.64073 16.5412 9.41374C15.8007 9.17637 15.0975 8.8355 14.4525 8.40125C13.9141 8.05257 13.4262 7.63154 13.0025 7.14999C13.6429 6.85657 14.3358 6.69503 15.04 6.675ZM12.1762 7.59999C12.5262 8.30749 13.015 8.93749 13.6137 9.45124L13.6762 9.51374C13.5128 9.58643 13.3405 9.63688 13.1637 9.66374C12.9595 9.67624 12.7554 9.67624 12.5512 9.66374L11.9387 9.75125C11.5298 9.86188 11.1112 9.93304 10.6887 9.96375C10.8738 9.01878 11.4041 8.17532 12.1762 7.59999Z" fill="#1E1E1E"/>
<path fill-rule="evenodd" clip-rule="evenodd" d="M19.655 22.0962C19.6916 22.0382 19.7111 21.9711 19.7111 21.9025C19.7111 21.8339 19.6916 21.7667 19.655 21.7087C19.355 21.2212 18.655 21.8837 17.8675 22.0712C17.1625 22.232 16.4492 22.3362 15.7275 22.3837C13.8873 22.5445 12.0336 22.3363 10.275 21.7712C9.38638 21.5031 8.54318 21.1028 7.77373 20.5837C7.03282 20.1043 6.36329 19.5228 5.78498 18.8562C4.75372 17.5787 4.07211 16.0552 3.80696 14.4349C3.54181 12.8146 3.70223 11.1533 4.27248 9.61371C4.76228 8.05043 5.57696 6.60833 6.66311 5.38194C7.74926 4.15556 9.08235 3.17258 10.575 2.49746C11.4926 2.10512 12.448 1.80774 13.4262 1.60996C14.3653 1.39654 15.3316 1.32909 16.2912 1.40996C18.9125 1.76996 21.2912 3.13871 22.92 5.22371C24.588 7.31654 25.4959 9.91375 25.495 12.59C25.4823 13.6271 25.3523 14.6595 25.1075 15.6675C24.8769 16.6698 24.4523 17.6172 23.8575 18.4562C23.2896 19.1047 22.671 19.7071 22.0075 20.2575C21.4449 20.5613 20.9092 20.9126 20.4062 21.3075C20.3703 21.3777 20.3546 21.4565 20.361 21.5352C20.3673 21.6138 20.3954 21.6891 20.4421 21.7527C20.4888 21.8162 20.5523 21.8656 20.6254 21.8951C20.6986 21.9247 20.7785 21.9333 20.8562 21.92C22.2862 21.1996 23.5611 20.2058 24.6087 18.995C25.2962 18.0825 25.7837 17.0325 26.0337 15.9175C26.3272 14.8357 26.4908 13.7229 26.5212 12.6025C26.5898 9.66988 25.645 6.80336 23.8462 4.48621C22.0766 2.10342 19.437 0.516514 16.5025 0.0712125C15.3888 -0.0573951 14.2618 -0.011001 13.1625 0.208712C12.0911 0.42366 11.0441 0.746125 10.0375 1.17121C8.3563 1.92927 6.85758 3.03965 5.64278 4.4272C4.42797 5.81475 3.52543 7.44708 2.99623 9.21371C2.39653 10.9668 2.26911 12.847 2.62678 14.665C2.98446 16.483 3.81462 18.1747 5.03373 19.57C6.43559 20.9844 8.14928 22.0508 10.0375 22.6837C11.939 23.1739 13.909 23.3429 15.8662 23.1837C16.6244 23.1141 17.3765 22.9888 18.1162 22.8087C18.6471 22.6087 19.16 22.3712 19.655 22.0962Z" fill="#1E1E1E"/>
<path fill-rule="evenodd" clip-rule="evenodd" d="M27.5475 26.3612C27.4163 25.7462 27.1326 25.174 26.7225 24.6974C26.21 24.0849 25.5337 23.5974 24.9587 23.0349C24.3837 22.4724 24.0337 22.0836 23.5575 21.6336C23.419 21.4992 23.2683 21.3778 23.1075 21.2711C23.0377 21.1967 22.9441 21.1491 22.8428 21.1364C22.7416 21.1237 22.6391 21.1468 22.5531 21.2017C22.4671 21.2565 22.403 21.3397 22.3718 21.4369C22.3407 21.534 22.3444 21.639 22.3825 21.7336C22.5825 21.8911 22.7616 22.0703 22.92 22.2711C23.3575 22.7461 23.77 23.2711 24.17 23.7461C24.57 24.2211 25.2825 24.8224 25.7462 25.4349C26.0012 25.7724 26.1687 26.1686 26.2337 26.5849C26.2543 26.9469 26.1619 27.3064 25.9693 27.6136C25.7767 27.9208 25.4935 28.1606 25.1587 28.2999C24.8548 28.5104 24.4979 28.6313 24.1287 28.649C23.7594 28.6667 23.3926 28.5804 23.07 28.3999C22.8007 28.1917 22.561 27.9478 22.3575 27.6749C22.022 27.179 21.7209 26.6607 21.4562 26.1236C21.0062 25.2736 20.5562 24.4224 20.2062 23.5336C20.0187 23.1086 20.0687 23.2461 19.8937 22.8086C19.7187 22.3711 19.0675 22.8086 19.205 23.1336C19.3925 23.7211 19.355 23.7462 19.5675 24.3212C19.855 25.0974 20.1675 25.8611 20.505 26.6236C20.7491 27.227 21.0329 27.8103 21.3562 28.3736C21.6125 28.7936 21.9375 29.1661 22.3187 29.4749C22.85 29.8177 23.4689 30.0001 24.1012 30.0001C24.7335 30.0001 25.3524 29.8177 25.8837 29.4749C26.4507 29.1937 26.9156 28.7425 27.2137 28.1843C27.5117 27.6261 27.6292 26.9887 27.5475 26.3612ZM15.365 16.8686C15.3704 16.7961 15.3532 16.7236 15.3155 16.6613C15.2779 16.5991 15.2218 16.5501 15.155 16.5211C15.1106 16.5027 15.0631 16.4929 15.015 16.4924C14.9433 16.4899 14.8724 16.5088 14.8115 16.5467C14.7505 16.5845 14.7021 16.6396 14.6725 16.7049C14.653 16.7483 14.642 16.7949 14.64 16.8424C14.5275 17.2924 14.39 17.7174 14.315 18.1936C14.2558 18.5747 14.2558 18.9626 14.315 19.3436C14.3775 19.8061 14.4775 20.2449 14.5775 20.6949C14.5775 20.8043 14.6209 20.9092 14.6983 20.9866C14.7757 21.0639 14.8806 21.1074 14.99 21.1074C15.0994 21.1074 15.2043 21.0639 15.2817 20.9866C15.359 20.9092 15.4025 20.8043 15.4025 20.6949C15.4025 20.2449 15.565 19.8199 15.615 19.3699C15.626 19.1784 15.626 18.9864 15.615 18.7949C15.6275 18.6066 15.6275 18.4191 15.615 18.2324C15.5775 17.7436 15.4525 17.3186 15.365 16.8686Z" fill="#1E1E1E"/>
</svg>
