<svg width="26" height="27" viewBox="0 0 26 27" fill="none" xmlns="http://www.w3.org/2000/svg">
<mask id="mask0_7_428" style="mask-type:luminance" maskUnits="userSpaceOnUse" x="0" y="0" width="26" height="26">
<path d="M25.5185 0.813477H0.481483V25.8505H25.5185V0.813477Z" fill="white"/>
</mask>
<g mask="url(#mask0_7_428)">
<path fill-rule="evenodd" clip-rule="evenodd" d="M12.0711 7.55234C12.3359 7.28753 12.3359 6.85818 12.0711 6.59338C11.8063 6.32857 11.377 6.32857 11.1122 6.59338L4.85291 12.8527C4.72574 12.9798 4.6543 13.1522 4.6543 13.3321C4.6543 13.512 4.72574 13.6845 4.85291 13.8116L11.1122 20.0708C11.377 20.3356 11.8063 20.3356 12.0711 20.0708C12.3359 19.806 12.3359 19.3767 12.0711 19.1119L6.96943 14.0102H20.7819C21.1564 14.0102 21.46 13.7066 21.46 13.3321C21.46 12.9576 21.1564 12.654 20.7819 12.654H6.96943L12.0711 7.55234Z" fill="white"/>
</g>
</svg>
