<svg width="26" height="27" viewBox="0 0 26 27" fill="none" xmlns="http://www.w3.org/2000/svg">
<mask id="mask0_7_435" style="mask-type:luminance" maskUnits="userSpaceOnUse" x="0" y="0" width="26" height="26">
<path d="M25.5185 0.813477H0.481476V25.8505H25.5185V0.813477Z" fill="white"/>
</mask>
<g mask="url(#mask0_7_435)">
<path fill-rule="evenodd" clip-rule="evenodd" d="M14.0432 19.1117C13.7784 19.3765 13.7784 19.8058 14.0432 20.0706C14.308 20.3354 14.7374 20.3354 15.0022 20.0706L21.2615 13.8113C21.3886 13.6842 21.46 13.5117 21.46 13.3319C21.46 13.152 21.3886 12.9795 21.2615 12.8524L15.0022 6.59314C14.7374 6.32833 14.308 6.32833 14.0432 6.59314C13.7784 6.85795 13.7784 7.28728 14.0432 7.5521L19.1449 12.6538H5.33239C4.95789 12.6538 4.6543 12.9574 4.6543 13.3319C4.6543 13.7064 4.95789 14.01 5.33239 14.01H19.1449L14.0432 19.1117Z" fill="white"/>
</g>
</svg>
